<svg id="mermaid-pzkece1g7-svg" width="100%" xmlns="http://www.w3.org/2000/svg" style="max-width: 961.5px;" viewBox="-50 -10 961.5 570" role="graphics-document document" aria-roledescription="sequence">
<g>
<rect x="706.5" y="484" fill="#eaeaea" stroke="#666" width="155" height="65" name="B" rx="3" ry="3" class="actor actor-bottom"></rect>
<text x="784" y="516.5" dominant-baseline="central" alignment-baseline="central" class="actor actor-box" style="text-anchor: middle; font-size: 16px; font-weight: 400;"><tspan x="784" dy="0">Backend (FastAPI)</tspan></text>
</g>
<g>
<rect x="479" y="484" fill="#eaeaea" stroke="#666" width="150" height="65" name="P" rx="3" ry="3" class="actor actor-bottom"></rect>
<text x="554" y="516.5" dominant-baseline="central" alignment-baseline="central" class="actor actor-box" style="text-anchor: middle; font-size: 16px; font-weight: 400;"><tspan x="554" dy="0">Proxy</tspan></text>
</g>
<g>
<rect x="239" y="484" fill="#eaeaea" stroke="#666" width="150" height="65" name="F" rx="3" ry="3" class="actor actor-bottom"></rect>
<text x="314" y="516.5" dominant-baseline="central" alignment-baseline="central" class="actor actor-box" style="text-anchor: middle; font-size: 16px; font-weight: 400;"><tspan x="314" dy="0">Frontend (React)</tspan></text>
</g>
<g>
<rect x="0" y="484" fill="#eaeaea" stroke="#666" width="150" height="65" name="U" rx="3" ry="3" class="actor actor-bottom"></rect>
<text x="75" y="516.5" dominant-baseline="central" alignment-baseline="central" class="actor actor-box" style="text-anchor: middle; font-size: 16px; font-weight: 400;"><tspan x="75" dy="0">User</tspan></text>
</g>
<g>
<line id="actor3" x1="784" y1="65" x2="784" y2="484" class="actor-line 200" stroke-width="0.5px" stroke="#999" name="B"></line>
<g id="root-3">
<rect x="706.5" y="0" fill="#eaeaea" stroke="#666" width="155" height="65" name="B" rx="3" ry="3" class="actor actor-top"></rect>
<text x="784" y="32.5" dominant-baseline="central" alignment-baseline="central" class="actor actor-box" style="text-anchor: middle; font-size: 16px; font-weight: 400;"><tspan x="784" dy="0">Backend (FastAPI)</tspan></text>
</g>
</g>
<g>
<line id="actor2" x1="554" y1="65" x2="554" y2="484" class="actor-line 200" stroke-width="0.5px" stroke="#999" name="P"></line>
<g id="root-2">
<rect x="479" y="0" fill="#eaeaea" stroke="#666" width="150" height="65" name="P" rx="3" ry="3" class="actor actor-top"></rect>
<text x="554" y="32.5" dominant-baseline="central" alignment-baseline="central" class="actor actor-box" style="text-anchor: middle; font-size: 16px; font-weight: 400;"><tspan x="554" dy="0">Proxy</tspan></text>
</g>
</g>
<g>
<line id="actor1" x1="314" y1="65" x2="314" y2="484" class="actor-line 200" stroke-width="0.5px" stroke="#999" name="F"></line>
<g id="root-1">
<rect x="239" y="0" fill="#eaeaea" stroke="#666" width="150" height="65" name="F" rx="3" ry="3" class="actor actor-top"></rect>
<text x="314" y="32.5" dominant-baseline="central" alignment-baseline="central" class="actor actor-box" style="text-anchor: middle; font-size: 16px; font-weight: 400;"><tspan x="314" dy="0">Frontend (React)</tspan></text>
</g>
</g>
<g>
<line id="actor0" x1="75" y1="65" x2="75" y2="484" class="actor-line 200" stroke-width="0.5px" stroke="#999" name="U"></line>
<g id="root-0">
<rect x="0" y="0" fill="#eaeaea" stroke="#666" width="150" height="65" name="U" rx="3" ry="3" class="actor actor-top"></rect>
<text x="75" y="32.5" dominant-baseline="central" alignment-baseline="central" class="actor actor-box" style="text-anchor: middle; font-size: 16px; font-weight: 400;"><tspan x="75" dy="0">User</tspan></text>
</g>
</g>
<style>
#mermaid-pzkece1g7-svg{font-family:"trebuchet ms",verdana,arial,sans-serif;font-size:16px;fill:#333;}
@keyframes edge-animation-frame{from{stroke-dashoffset:0;}}
@keyframes dash{to{stroke-dashoffset:0;}}
#mermaid-pzkece1g7-svg .edge-animation-slow{stroke-dasharray:9,5!important;stroke-dashoffset:900;animation:dash 50s linear infinite;stroke-linecap:round;}
#mermaid-pzkece1g7-svg .edge-animation-fast{stroke-dasharray:9,5!important;stroke-dashoffset:900;animation:dash 20s linear infinite;stroke-linecap:round;}
#mermaid-pzkece1g7-svg .error-icon{fill:#552222;}
#mermaid-pzkece1g7-svg .error-text{fill:#552222;stroke:#552222;}
#mermaid-pzkece1g7-svg .edge-thickness-normal{stroke-width:1px;}
#mermaid-pzkece1g7-svg .edge-thickness-thick{stroke-width:3.5px;}
#mermaid-pzkece1g7-svg .edge-pattern-solid{stroke-dasharray:0;}
#mermaid-pzkece1g7-svg .edge-thickness-invisible{stroke-width:0;fill:none;}
#mermaid-pzkece1g7-svg .edge-pattern-dashed{stroke-dasharray:3;}
#mermaid-pzkece1g7-svg .edge-pattern-dotted{stroke-dasharray:2;}
#mermaid-pzkece1g7-svg .marker{fill:#333333;stroke:#333333;}
#mermaid-pzkece1g7-svg .marker.cross{stroke:#333333;}
#mermaid-pzkece1g7-svg svg{font-family:"trebuchet ms",verdana,arial,sans-serif;font-size:16px;}
#mermaid-pzkece1g7-svg p{margin:0;}
#mermaid-pzkece1g7-svg .actor{stroke:hsl(259.6261682243, 59.7765363128%, 87.9019607843%);fill:#ECECFF;}
#mermaid-pzkece1g7-svg text.actor>tspan{fill:black;stroke:none;}
#mermaid-pzkece1g7-svg .actor-line{stroke:hsl(259.6261682243, 59.7765363128%, 87.9019607843%);}
#mermaid-pzkece1g7-svg .messageLine0{stroke-width:1.5;stroke-dasharray:none;stroke:#333;}
#mermaid-pzkece1g7-svg .messageLine1{stroke-width:1.5;stroke-dasharray:2,2;stroke:#333;}
#mermaid-pzkece1g7-svg #arrowhead path{fill:#333;stroke:#333;}
#mermaid-pzkece1g7-svg .sequenceNumber{fill:white;}
#mermaid-pzkece1g7-svg #sequencenumber{fill:#333;}
#mermaid-pzkece1g7-svg #crosshead path{fill:#333;stroke:#333;}
#mermaid-pzkece1g7-svg .messageText{fill:#333;stroke:none;}
#mermaid-pzkece1g7-svg .labelBox{stroke:hsl(259.6261682243, 59.7765363128%, 87.9019607843%);fill:#ECECFF;}
#mermaid-pzkece1g7-svg .labelText,#mermaid-pzkece1g7-svg .labelText>tspan{fill:black;stroke:none;}
#mermaid-pzkece1g7-svg .loopText,#mermaid-pzkece1g7-svg .loopText>tspan{fill:black;stroke:none;}
#mermaid-pzkece1g7-svg .loopLine{stroke-width:2px;stroke-dasharray:2,2;stroke:hsl(259.6261682243, 59.7765363128%, 87.9019607843%);fill:hsl(259.6261682243, 59.7765363128%, 87.9019607843%);}
#mermaid-pzkece1g7-svg .note{stroke:#aaaa33;fill:#fff5ad;}
#mermaid-pzkece1g7-svg .noteText,#mermaid-pzkece1g7-svg .noteText>tspan{fill:black;stroke:none;}
#mermaid-pzkece1g7-svg .activation0{fill:#f4f4f4;stroke:#666;}
#mermaid-pzkece1g7-svg .activation1{fill:#f4f4f4;stroke:#666;}
#mermaid-pzkece1g7-svg .activation2{fill:#f4f4f4;stroke:#666;}
#mermaid-pzkece1g7-svg .actorPopupMenu{position:absolute;}
#mermaid-pzkece1g7-svg .actorPopupMenuPanel{position:absolute;fill:#ECECFF;box-shadow:0px 8px 16px 0px rgba(0,0,0,0.2);filter:drop-shadow(3px 5px 2px rgb(0 0 0 / 0.4));}
#mermaid-pzkece1g7-svg .actor-man line{stroke:hsl(259.6261682243, 59.7765363128%, 87.9019607843%);fill:#ECECFF;}
#mermaid-pzkece1g7-svg .actor-man circle,#mermaid-pzkece1g7-svg line{stroke:hsl(259.6261682243, 59.7765363128%, 87.9019607843%);fill:#ECECFF;stroke-width:2px;}
#mermaid-pzkece1g7-svg :root{--mermaid-font-family:"trebuchet ms",verdana,arial,sans-serif;}
</style>
<defs>
<symbol id="computer" width="24" height="24">
<path transform="scale(.5)" d="M2 2v13h20v-13h-20zm18 11h-16v-9h16v9zm-10.228 6l.466-1h3.524l.467 1h-4.457zm14.228 3h-24l2-6h2.104l-1.33 4h18.45l-1.297-4h2.073l2 6zm-5-10h-14v-7h14v7z"></path>
</symbol>
</defs>
<defs>
<symbol id="database" fill-rule="evenodd" clip-rule="evenodd">
<path transform="scale(.5)" d="M12.258.001l.256.004.255.005.253.008.251.01.249.012.247.015.246.016.242.019.241.02.239.023.236.024.233.027.231.028.229.031.225.032.223.034.22.036.217.038.214.04.211.041.208.043.205.045.201.046.198.048.194.05.191.051.187.053.183.054.18.056.175.057.172.059.168.06.163.061.16.063.155.064.15.066.074.033.073.033.071.034.07.034.069.035.068.035.067.035.066.035.064.036.064.036.062.036.06.036.06.037.058.037.058.037.055.038.055.038.053.038.052.038.051.039.05.039.048.039.047.039.045.04.044.04.043.04.041.04.04.041.039.041.037.041.036.041.034.041.033.042.032.042.03.042.029.042.027.042.026.043.024.043.023.043.021.043.02.043.018.044.017.043.015.044.013.044.012.044.011.045.009.044.007.045.006.045.004.045.002.045.001.045v17l-.001.045-.002.045-.004.045-.006.045-.007.045-.009.044-.011.045-.012.044-.013.044-.015.044-.017.043-.018.044-.02.043-.021.043-.023.043-.024.043-.026.043-.027.042-.029.042-.03.042-.032.042-.033.042-.034.041-.036.041-.037.041-.039.041-.04.041-.041.04-.043.04-.044.04-.045.04-.047.039-.048.039-.05.039-.051.039-.052.038-.053.038-.055.038-.055.038-.058.037-.058.037-.06.037-.06.036-.062.036-.064.036-.064.036-.066.035-.067.035-.068.035-.069.035-.07.034-.071.034-.073.033-.074.033-.15.066-.155.064-.16.063-.163.061-.168.06-.172.059-.175.057-.18.056-.183.054-.187.053-.191.051-.194.05-.198.048-.201.046-.205.045-.208.043-.211.041-.214.04-.217.038-.22.036-.223.034-.225.032-.229.031-.231.028-.233.027-.236.024-.239.023-.241.02-.242.019-.246.016-.247.015-.249.012-.251.01-.253.008-.255.005-.256.004-.258.001-.258-.001-.256-.004-.255-.005-.253-.008-.251-.01-.249-.012-.247-.015-.245-.016-.243-.019-.241-.02-.238-.023-.236-.024-.234-.027-.231-.028-.228-.031-.226-.032-.223-.034-.22-.036-.217-.038-.214-.04-.211-.041-.208-.043-.204-.045-.201-.046-.198-.048-.195-.05-.19-.051-.187-.053-.184-.054-.179-.056-.176-.057-.172-.059-.167-.06-.164-.061-.159-.063-.155-.064-.151-.066-.074.033-.072.033-.072-.034-.07-.034-.069-.035-.068-.035-.067-.035-.066-.035-.064-.036-.063-.036-.062-.036-.061-.036-.06-.037-.058-.037-.058-.037-.055.038-.055.038-.053.038-.052.038-.051.039.05.039.048.039.047.039.045.04.044.04.043.04.041.04.04.041.039.041.037.041.036.041.034.041.033.042.032.042.03.042.029.042.027.042.026.043.024.043.023.043.021.043.02.043.018.044.017.043.015.044.013.044.012.044.011.045.009.044.007.045.006.045.004.045.002.045.001.045v-17l.001-.045.002-.045.004-.045.006-.045.007-.045.009-.044.011-.045.012-.044.013-.044.015-.044.017-.043.018-.044.02-.043.021-.043.023-.043.024-.043.026-.043.027-.042.029-.042.03-.042.032-.042.033-.042.034-.041.036-.041.037-.041.039-.041.04-.041.041-.04.043-.04.044-.04.045.04-.047.039-.048.039-.05.039-.051.039-.052.038-.053.038-.055.038-.055.038-.058.037-.058.037-.06.037-.06.036-.062.036-.064.036-.064.036-.066.035-.067.035-.068.035-.069.035-.07.034-.071.034-.073.033-.074.033-.15.066-.155.064-.16.063-.163.061-.168.06-.172.059-.175.057-.18.056-.183.054-.187.053-.191.051-.194.05-.198.048-.201.046-.205.045-.208.043-.211.041-.214.04-.217.038-.22.036-.223.034-.225.032-.229.031-.231.028-.233.027-.236.024-.239.023-.241.02-.242.019-.246.016-.247.015-.249.012-.251.01-.253.008-.255.005-.256.004-.258.001-.258.001z"></path>
</symbol>
</defs>
<defs>
<symbol id="clock" width="24" height="24">
<path transform="scale(.5)" d="M12 2c5.514 0 10 4.486 10 10s-4.486 10-10 10-10-4.486-10-10 4.486-10 10-10zm0-2c-6.627 0-12 5.373-12 12s5.373 12 12 12 12-5.373 12-12-5.373-12-12-12zm5.848 12.459c.202.038.202.333.001.372-1.907.361-6.045 1.111-6.547 1.111-.719 0-1.301-.582-1.301-1.301 0-.512.77-5.447 1.125-7.445.034-.192.312-.181.343.014l.985 6.238 5.394 1.011z"></path>
</symbol>
</defs>
<defs>
<marker id="arrowhead" refX="7.9" refY="5" markerUnits="userSpaceOnUse" markerWidth="12" markerHeight="12" orient="auto-start-reverse">
<path d="M -1 0 L 10 5 L 0 10 z"></path>
</marker>
</defs>
<defs>
<marker id="crosshead" markerWidth="15" markerHeight="8" orient="auto" refX="4" refY="4.5">
<path fill="none" stroke="#000000" stroke-width="1pt" d="M 1,2 L 6,7 M 6,2 L 1,7" style="stroke-dasharray: 0, 0;"></path>
</marker>
</defs>
<defs>
<marker id="filled-head" refX="15.5" refY="7" markerWidth="20" markerHeight="28" orient="auto">
<path d="M 18,7 L9,13 L14,7 L9,1 Z"></path>
</marker>
</defs>
<defs>
<marker id="sequencenumber" refX="15" refY="15" markerWidth="60" markerHeight="40" orient="auto">
<circle cx="15" cy="15" r="6"></circle>
</marker>
</defs>
<g>
<rect x="217" y="221" fill="#EDF2AE" stroke="#666" width="194" height="39" class="note"></rect>
<text x="314" y="226" text-anchor="middle" dominant-baseline="middle" alignment-baseline="middle" class="noteText" dy="1em" style="font-size: 16px; font-weight: 400;"><tspan x="314">⚠️ Request hangs here</tspan></text>
</g>
<text x="193" y="80" text-anchor="middle" dominant-baseline="middle" alignment-baseline="middle" class="messageText" dy="1em" style="font-size: 16px; font-weight: 400;">Captures ID document</text>
<line x1="76" y1="123" x2="310" y2="123" class="messageLine0" stroke-width="2" stroke="none" marker-end="url(#arrowhead)" style="fill: none;"></line>
<text x="315" y="138" text-anchor="middle" dominant-baseline="middle" alignment-baseline="middle" class="messageText" dy="1em" style="font-size: 16px; font-weight: 400;">kycApi.uploadImage()</text>
<path d="M 315,181 C 375,171 375,211 315,201" class="messageLine0" stroke-width="2" stroke="none" marker-end="url(#arrowhead)" style="fill: none;"></path>
<text x="433" y="275" text-anchor="middle" dominant-baseline="middle" alignment-baseline="middle" class="messageText" dy="1em" style="font-size: 16px; font-weight: 400;">Request never reaches</text>
<line x1="315" y1="318" x2="550" y2="318" class="messageLine0" stroke-width="2" stroke="none" marker-end="url(#crosshead)" style="fill: none;"></line>
<text x="668" y="333" text-anchor="middle" dominant-baseline="middle" alignment-baseline="middle" class="messageText" dy="1em" style="font-size: 16px; font-weight: 400;">Backend never called</text>
<line x1="555" y1="376" x2="780" y2="376" class="messageLine0" stroke-width="2" stroke="none" marker-end="url(#crosshead)" style="fill: none;"></line>
<text x="76" y="391" text-anchor="middle" dominant-baseline="middle" alignment-baseline="middle" class="messageText" dy="1em" style="font-size: 16px; font-weight: 400;">"App is frozen"</text>
<path d="M 76,434 C 136,424 136,464 76,454" class="messageLine0" stroke-width="2" stroke="none" marker-end="url(#arrowhead)" style="fill: none;"></path>
</g>
</svg>